<?xml version="1.0" standalone="no"?>
<!DOCTYPE svg PUBLIC "-//W3C//DTD SVG 20010904//EN"
 "http://www.w3.org/TR/2001/REC-SVG-20010904/DTD/svg10.dtd">
<svg version="1.0" xmlns="http://www.w3.org/2000/svg"
 width="512.000000pt" height="512.000000pt" viewBox="0 0 512.000000 512.000000"
 preserveAspectRatio="xMidYMid meet">
<metadata>
Created by potrace 1.14, written by Peter Selinger 2001-2017
</metadata>
<g transform="translate(0.000000,512.000000) scale(0.100000,-0.100000)"
fill="#000000" stroke="none">
<path d="M2335 4955 l1 -165 -333 0 -333 0 0 -168 0 -168 -317 1 c-175 0 -326
-1 -335 -3 -16 -4 -18 -20 -18 -168 l0 -164 -164 0 c-122 0 -165 -3 -168 -12
-2 -7 -3 -82 -3 -165 1 -147 0 -153 -20 -154 -11 0 -85 -2 -165 -2 l-145 -2
-3 -167 -2 -168 -165 0 -165 0 2 -612 3 -613 165 0 165 0 0 168 0 167 388 0
387 0 0 -169 0 -169 168 2 167 1 3 168 2 167 444 0 443 0 1 -1097 c0 -604 1
-1105 1 -1113 1 -13 25 -16 164 -15 l162 0 3 1112 2 1113 500 0 500 0 0 -169
0 -169 170 0 170 1 0 168 0 169 385 0 c360 0 385 -1 386 -17 1 -10 2 -79 4
-153 1 -74 3 -142 3 -150 2 -14 25 -16 165 -15 l162 0 3 613 2 612 -165 0
-165 0 -1 155 c-1 85 -2 161 -3 168 -1 9 -36 12 -136 14 -74 0 -149 1 -166 2
l-31 1 1 165 1 165 -167 0 -168 0 0 168 0 167 -335 0 -335 -1 0 168 0 168
-390 0 -389 0 0 143 c0 78 0 152 0 165 -1 22 -2 22 -169 22 l-168 0 1 -165z"/>
<path d="M3338 502 l-3 -167 -330 -1 -330 0 -3 -167 -2 -167 335 0 335 0 0
168 0 167 161 -1 c137 -1 161 2 167 15 6 13 8 157 3 293 l-1 28 -165 -1 -165
-1 -2 -166z"/>
</g>
</svg>
